<svg width="45" height="22" viewBox="0 0 45 22" fill="none" xmlns="http://www.w3.org/2000/svg">
<path d="M1 11.4772V20.0593L4.76608 17.9898V13.364L1 11.4772Z" fill="black"/>
<path d="M7.94777 13.9118L1 10.3816V5.81665L8.27243 9.59033L21.6485 2.34729V20.0593L17.6876 17.9898V8.61648L7.94777 13.9118Z" fill="black"/>
<path d="M1 11.4772V20.0593L4.76608 17.9898V13.364L1 11.4772Z" stroke="black"/>
<path d="M7.94777 13.9118L1 10.3816V5.81665L8.27243 9.59033L21.6485 2.34729V20.0593L17.6876 17.9898V8.61648L7.94777 13.9118Z" stroke="black"/>
<path d="M28.612 18.6335L23.5843 20.0593L34.5813 2L36.1209 6.69303L28.612 18.6335Z" fill="black" stroke="black"/>
<path d="M38.5555 19.6329L43.086 20.6954L36.4219 8.34852L34.3576 11.9559L38.5555 19.6329Z" fill="black" stroke="black"/>
</svg>
